<?xml version="1.0" encoding="UTF-8"?>
<svg id="Name_Occupation" data-name="Name &amp;amp; Occupation" xmlns="http://www.w3.org/2000/svg" viewBox="0 0 752.15 174.94">
  <path d="M5.23,132.54h2.41l10.15,22.32,10.23-22.32h2.41v30.31h-2.54v-24.55l-9.07,19.74h-2.02l-9.03-19.69v24.51h-2.54v-30.31Z" fill="#fff"/>
  <path d="M35.97,153.61v-5.63c0-5.8,3.31-9.55,9.16-9.55s9.12,3.74,9.12,9.55v5.63c0,5.93-3.44,9.67-9.12,9.67s-9.16-3.74-9.16-9.67Zm9.16,7.4c4.08,0,6.66-2.62,6.66-7.14v-6.15c0-4.39-2.58-7.01-6.66-7.01s-6.75,2.62-6.75,7.01v6.15c0,4.52,2.54,7.14,6.75,7.14Z" fill="#fff"/>
  <path d="M61.69,158.9v3.96h-2.32v-32.21h2.41v12.08c1.03-2.36,3.53-4.39,7.35-4.39,5.38,0,8.56,3.57,8.56,9.46v5.89c0,6.06-3.18,9.59-8.56,9.59-3.83,0-6.41-1.98-7.44-4.39Zm6.79,2.28c4.34,0,6.75-2.88,6.75-7.74v-5.33c0-4.73-2.36-7.65-6.75-7.65-4.13,0-6.71,2.71-6.71,7.35v5.63c0,4.9,2.49,7.74,6.71,7.74Z" fill="#fff"/>
  <path d="M83.83,131.25c.95,0,1.68,.73,1.68,1.68s-.73,1.68-1.68,1.68-1.68-.77-1.68-1.68,.73-1.68,1.68-1.68Zm-1.25,7.44h2.45v24.17h-2.45v-24.17Z" fill="#fff"/>
  <path d="M90.63,130.22h2.45v32.64h-2.45v-32.64Z" fill="#fff"/>
  <path d="M98.19,153.74v-5.8c0-6.06,3.35-9.63,9.16-9.63s9.12,3.48,9.12,9.42v3.61h-15.87v2.84c0,4.39,2.67,7.01,6.75,7.01s6.66-2.62,6.66-5.98v-.26h2.45v.17c0,4.43-3.4,8.17-9.12,8.17s-9.16-3.48-9.16-9.55Zm15.82-4.3v-1.85c0-4.73-2.49-7.14-6.66-7.14s-6.75,2.62-6.75,7.09v1.89h13.42Z" fill="#fff"/>
  <path d="M139.43,132.54h2.88l10.58,30.31h-2.67l-2.62-7.7h-13.59l-2.71,7.7h-2.62l10.75-30.31Zm7.48,20.42l-6.02-17.59-6.19,17.59h12.21Z" fill="#fff"/>
  <path d="M156.5,138.69h2.32v4.13c1.03-2.41,3.61-4.43,7.44-4.43,5.5,0,8.56,3.7,8.56,10.28v4.99c0,5.93-3.18,9.5-8.56,9.5-3.83,0-6.36-2.02-7.35-4.39v12.56h-2.41v-32.64Zm9.12,22.36c4.34,0,6.75-2.88,6.75-7.65v-5.12c0-4.9-2.41-7.78-6.75-7.78s-6.71,2.75-6.71,7.48v5.42c0,4.77,2.49,7.65,6.71,7.65Z" fill="#fff"/>
  <path d="M180.15,138.69h2.32v4.13c1.03-2.41,3.61-4.43,7.44-4.43,5.5,0,8.56,3.7,8.56,10.28v4.99c0,5.93-3.18,9.5-8.56,9.5-3.83,0-6.36-2.02-7.35-4.39v12.56h-2.41v-32.64Zm9.12,22.36c4.34,0,6.75-2.88,6.75-7.65v-5.12c0-4.9-2.41-7.78-6.75-7.78s-6.71,2.75-6.71,7.48v5.42c0,4.77,2.49,7.65,6.71,7.65Z" fill="#fff"/>
  <path d="M203.8,130.22h2.45v32.64h-2.45v-32.64Z" fill="#fff"/>
  <path d="M213.04,131.25c.95,0,1.68,.73,1.68,1.68s-.73,1.68-1.68,1.68-1.68-.77-1.68-1.68,.73-1.68,1.68-1.68Zm-1.25,7.44h2.45v24.17h-2.45v-24.17Z" fill="#fff"/>
  <path d="M219.19,153.74v-5.68c0-5.93,3.35-9.67,9.16-9.67s9.12,3.48,9.12,9.5v.09h-2.45v-.09c0-4.64-2.36-7.31-6.66-7.31s-6.75,2.62-6.75,7.61v5.72c0,4.43,2.36,7.22,6.75,7.22s6.66-2.67,6.66-7.27v-.09h2.45v.09c0,5.89-3.35,9.42-9.12,9.42s-9.16-3.7-9.16-9.55Z" fill="#fff"/>
  <path d="M241.94,153.7v-5.89c0-5.98,3.27-9.46,8.51-9.46,3.87,0,6.41,2.02,7.44,4.34v-4h2.32v24.17h-2.32v-3.96c-1.03,2.37-3.57,4.39-7.44,4.39-5.33,0-8.51-3.57-8.51-9.59Zm9.16,7.48c4.26,0,6.66-2.88,6.66-7.78v-5.59c0-4.64-2.54-7.35-6.66-7.35-4.34,0-6.71,2.84-6.71,7.61v5.33c0,4.95,2.36,7.78,6.71,7.78Z" fill="#fff"/>
  <path d="M266.15,153.82v-12.99h-2.75v-1.72c3.18,0,3.53-.99,3.53-5.12h1.68v4.69h6.79v2.15h-6.79v12.73c0,6.54,.99,7.65,6.92,7.27v2.24c-7.48,.82-9.37-1.98-9.37-9.25Z" fill="#fff"/>
  <path d="M280.81,131.25c.95,0,1.68,.73,1.68,1.68s-.73,1.68-1.68,1.68-1.68-.77-1.68-1.68,.73-1.68,1.68-1.68Zm-1.25,7.44h2.45v24.17h-2.45v-24.17Z" fill="#fff"/>
  <path d="M286.96,153.61v-5.63c0-5.8,3.31-9.55,9.16-9.55s9.12,3.74,9.12,9.55v5.63c0,5.93-3.44,9.67-9.12,9.67s-9.16-3.74-9.16-9.67Zm9.16,7.4c4.08,0,6.66-2.62,6.66-7.14v-6.15c0-4.39-2.58-7.01-6.66-7.01s-6.75,2.62-6.75,7.01v6.15c0,4.52,2.54,7.14,6.75,7.14Z" fill="#fff"/>
  <path d="M310.35,138.69h2.32v4.04c1.03-2.36,3.61-4.39,7.44-4.39,5.38,0,8.56,3.57,8.56,9.46v15.05h-2.45v-14.79c0-4.69-2.15-7.61-6.75-7.61s-6.71,2.67-6.71,7.52v14.88h-2.41v-24.17Z" fill="#fff"/>
  <path d="M332.93,154.86h2.41c0,3.74,2.54,6.28,6.79,6.28,3.78,0,6.45-1.81,6.45-4.77,0-6.49-15.05-1.85-15.05-11.35,0-4.17,3.48-6.71,8.39-6.71,5.85,0,8.9,3.01,8.9,8.17h-2.32c0-3.96-2.24-6.02-6.58-6.02-3.87,0-5.98,1.93-5.98,4.51,0,7.35,15.05,2.37,15.05,11.44,0,4-2.97,6.88-8.86,6.88s-9.2-3.44-9.2-8.43Z" fill="#fff"/>
  <path d="M365.17,130.22h2.45v34.83h-2.45v-34.83Z" fill="#fff"/>
  <path d="M380.7,132.54h2.58l7.01,25.8,6.45-25.8h2.24l6.45,25.8,7.01-25.8h2.62l-8.34,30.31h-2.41l-6.45-25.46-6.45,25.46h-2.45l-8.26-30.31Z" fill="#fff"/>
  <path d="M415.79,153.74v-5.8c0-6.06,3.35-9.63,9.16-9.63s9.12,3.48,9.12,9.42v3.61h-15.87v2.84c0,4.39,2.67,7.01,6.75,7.01s6.67-2.62,6.67-5.98v-.26h2.45v.17c0,4.43-3.4,8.17-9.12,8.17s-9.16-3.48-9.16-9.55Zm15.82-4.3v-1.85c0-4.73-2.49-7.14-6.67-7.14s-6.75,2.62-6.75,7.09v1.89h13.42Z" fill="#fff"/>
  <path d="M441.28,158.9v3.96h-2.32v-32.21h2.41v12.08c1.03-2.36,3.53-4.39,7.35-4.39,5.38,0,8.56,3.57,8.56,9.46v5.89c0,6.06-3.18,9.59-8.56,9.59-3.83,0-6.41-1.98-7.44-4.39Zm6.79,2.28c4.34,0,6.75-2.88,6.75-7.74v-5.33c0-4.73-2.37-7.65-6.75-7.65-4.13,0-6.71,2.71-6.71,7.35v5.63c0,4.9,2.49,7.74,6.71,7.74Z" fill="#fff"/>
  <path d="M471,154.13c0-3.83,2.41-6.11,5.25-6.88-2.97-.99-4.73-3.44-4.73-6.88,0-4.95,4.08-8.34,9.98-8.34s9.98,3.61,9.98,10.15h-2.58c0-5.25-2.97-7.78-7.35-7.78s-7.52,2.19-7.52,5.93c0,3.53,2.28,5.89,6.23,5.89h4.13v2.28h-4.17c-3.65,0-6.66,1.81-6.66,5.59,0,4.51,3.4,6.84,7.95,6.84s8.04-2.54,8.04-8.26v-6.45h6.19v2.37h-3.74v4.3c0,6.97-4.64,10.49-10.53,10.49-6.41,0-10.45-3.35-10.45-9.24Z" fill="#fff"/>
  <path d="M510.51,132.54h2.41l10.15,22.32,10.23-22.32h2.41v30.31h-2.54v-24.55l-9.07,19.74h-2.02l-9.03-19.69v24.51h-2.54v-30.31Z" fill="#fff"/>
  <path d="M541.26,153.74v-5.8c0-6.06,3.35-9.63,9.16-9.63s9.12,3.48,9.12,9.42v3.61h-15.87v2.84c0,4.39,2.67,7.01,6.75,7.01s6.67-2.62,6.67-5.98v-.26h2.45v.17c0,4.43-3.4,8.17-9.12,8.17s-9.16-3.48-9.16-9.55Zm15.82-4.3v-1.85c0-4.73-2.49-7.14-6.67-7.14s-6.75,2.62-6.75,7.09v1.89h13.42Z" fill="#fff"/>
  <path d="M563.79,153.7v-5.89c0-5.89,3.18-9.46,8.56-9.46,3.83,0,6.36,1.98,7.31,4.39v-12.08h2.45v32.21h-2.32v-3.96c-1.03,2.41-3.61,4.39-7.44,4.39-5.38,0-8.56-3.53-8.56-9.59Zm9.2,7.48c4.21,0,6.67-2.84,6.67-7.74v-5.63c0-4.64-2.54-7.35-6.67-7.35-4.39,0-6.75,2.92-6.75,7.65v5.33c0,4.86,2.41,7.74,6.75,7.74Z" fill="#fff"/>
  <path d="M588.9,131.25c.95,0,1.68,.73,1.68,1.68s-.73,1.68-1.68,1.68-1.68-.77-1.68-1.68,.73-1.68,1.68-1.68Zm-1.25,7.44h2.45v24.17h-2.45v-24.17Z" fill="#fff"/>
  <path d="M595.05,153.7v-5.89c0-5.98,3.27-9.46,8.51-9.46,3.87,0,6.41,2.02,7.44,4.34v-4h2.32v24.17h-2.32v-3.96c-1.03,2.37-3.57,4.39-7.44,4.39-5.33,0-8.51-3.57-8.51-9.59Zm9.16,7.48c4.26,0,6.66-2.88,6.66-7.78v-5.59c0-4.64-2.54-7.35-6.66-7.35-4.34,0-6.71,2.84-6.71,7.61v5.33c0,4.95,2.36,7.78,6.71,7.78Z" fill="#fff"/>
  <path d="M628.98,132.54h9.54c5.98,0,10.15,3.74,10.15,11.14v7.91c0,7.35-4.17,11.27-10.15,11.27h-9.54v-30.31Zm9.29,27.86c4.6,0,7.87-2.75,7.87-9.33v-6.92c0-6.54-3.27-9.12-7.87-9.12h-6.75v25.37h6.75Z" fill="#fff"/>
  <path d="M653.36,153.74v-5.8c0-6.06,3.35-9.63,9.16-9.63s9.12,3.48,9.12,9.42v3.61h-15.87v2.84c0,4.39,2.67,7.01,6.75,7.01s6.66-2.62,6.66-5.98v-.26h2.45v.17c0,4.43-3.4,8.17-9.12,8.17s-9.16-3.48-9.16-9.55Zm15.82-4.3v-1.85c0-4.73-2.49-7.14-6.66-7.14s-6.75,2.62-6.75,7.09v1.89h13.42Z" fill="#fff"/>
  <path d="M675.46,154.86h2.41c0,3.74,2.54,6.28,6.79,6.28,3.78,0,6.45-1.81,6.45-4.77,0-6.49-15.05-1.85-15.05-11.35,0-4.17,3.48-6.71,8.38-6.71,5.85,0,8.9,3.01,8.9,8.17h-2.32c0-3.96-2.24-6.02-6.58-6.02-3.87,0-5.98,1.93-5.98,4.51,0,7.35,15.05,2.37,15.05,11.44,0,4-2.97,6.88-8.86,6.88s-9.2-3.44-9.2-8.43Z" fill="#fff"/>
  <path d="M699.28,131.25c.95,0,1.68,.73,1.68,1.68s-.73,1.68-1.68,1.68-1.68-.77-1.68-1.68,.73-1.68,1.68-1.68Zm-1.25,7.44h2.45v24.17h-2.45v-24.17Z" fill="#fff"/>
  <path d="M705.73,164.7h2.37c0,2.71,1.51,5.25,6.54,5.25s6.62-2.28,6.62-6.58v-4.47c-1.03,2.45-3.44,4.39-7.31,4.39-5.33,0-8.51-3.57-8.51-9.59v-5.89c0-5.85,3.14-9.42,8.3-9.42,3.87,0,6.66,1.81,7.65,4.3v-4h2.32v24.29c0,5.85-2.02,8.99-9.07,8.99s-8.9-3.48-8.9-7.27Zm8.86-3.44c4.13,0,6.67-2.71,6.67-7.44v-6.36c0-4.43-2.58-7.01-6.67-7.01-4.34,0-6.71,2.84-6.71,7.61v5.42c0,4.95,2.37,7.78,6.71,7.78Z" fill="#fff"/>
  <path d="M729.46,138.69h2.32v4.04c1.03-2.36,3.61-4.39,7.44-4.39,5.38,0,8.56,3.57,8.56,9.46v15.05h-2.45v-14.79c0-4.69-2.15-7.61-6.75-7.61s-6.71,2.67-6.71,7.52v14.88h-2.41v-24.17Z" fill="#fff"/>
  <path d="M20.04,33.66H2.4v-15.96H54.24v15.96h-17.64V102.3H20.04V33.66Z" fill="#fff"/>
  <path d="M70.44,7.62c5.4,0,9.6,4.32,9.6,9.6s-4.2,9.48-9.6,9.48-9.6-4.2-9.6-9.48,4.32-9.6,9.6-9.6Zm-7.92,27.24h15.72V102.3h-15.72V34.86Z" fill="#fff"/>
  <path d="M106.92,94.98v7.32h-14.76V11.7h15.72v29.28s4.56-6.84,15.12-6.84c12.24,0,20.28,7.56,20.28,24.72v19.68c0,17.28-8.04,24.84-20.28,24.84-9.84,0-15.12-6.12-16.08-8.4Zm10.68-5.52c5.76,0,9.72-3.84,9.72-12.12v-17.16c0-8.16-3.84-12-9.72-12s-9.72,3.6-9.72,11.64v17.52c0,8.28,3.96,12.12,9.72,12.12Z" fill="#fff"/>
  <path d="M152.64,77.1v-16.44c0-16.44,9.36-26.64,25.68-26.64s25.44,9.48,25.44,26.04v13.2h-35.28v7.32c0,6,4.8,10.08,9.84,10.08s9.6-3,9.6-8.52v-1.44h15.84v.48c0,12.36-9.48,22.32-25.44,22.32s-25.68-10.2-25.68-26.4Zm35.28-14.88v-3.24c0-9-3.72-12-9.6-12s-9.84,3.12-9.84,10.32v4.92h19.44Z" fill="#fff"/>
  <path d="M217.56,77.34v-28.68h-6.6l-.12-12.72c8.88,0,11.88-3.72,11.88-14.76h10.56v13.68h12.48v13.8h-12.48v29.04c0,9.6,2.88,12.6,12.72,11.16v14.04c-20.76,2.4-28.44-5.64-28.44-25.56Z" fill="#fff"/>
  <path d="M302.51,17.7h18.12l24.48,84.6h-16.92l-4.44-16.68h-24.6l-4.68,16.68h-16.8l24.84-84.6Zm17.76,53.64l-8.64-33.12-9,33.12h17.64Z" fill="#fff"/>
  <path d="M352.07,11.7h15.84V62.22h5.28l13.56-27.36h18l-18.48,33.6,18.6,33.84h-18l-13.68-27.12h-5.28v27.12h-15.84V11.7Z" fill="#fff"/>
  <path d="M429.47,102.18l-20.88-67.32h16.92l12,44.88,12-44.88h16.92l-28.32,91.08h-16.08l7.44-23.76Z" fill="#fff"/>
  <path d="M472.07,77.46V34.86h15.84v44.88c0,6.96,5.28,9.72,9.84,9.72,3.84,0,9.6-2.64,9.6-9.72V34.86h15.96v42.6c0,15.96-9.96,26.04-25.56,26.04s-25.68-10.08-25.68-26.04Z" fill="#fff"/>
  <path d="M535.19,34.86h14.76v9.12c1.92-7.44,10.2-10.8,17.88-9.84v15.48c-12.12-.96-16.92,4.8-16.92,15.6v37.08h-15.72V34.86Z" fill="#fff"/>
  <path d="M573.83,77.1v-16.44c0-16.44,9.36-26.64,25.68-26.64s25.44,9.48,25.44,26.04v13.2h-35.28v7.32c0,6,4.8,10.08,9.84,10.08s9.6-3,9.6-8.52v-1.44h15.84v.48c0,12.36-9.48,22.32-25.44,22.32s-25.68-10.2-25.68-26.4Zm35.28-14.88v-3.24c0-9-3.72-12-9.6-12s-9.84,3.12-9.84,10.32v4.92h19.44Z" fill="#fff"/>
  <path d="M635.75,11.7h15.84V62.22h5.28l13.56-27.36h18l-18.48,33.6,18.6,33.84h-18l-13.68-27.12h-5.28v27.12h-15.84V11.7Z" fill="#fff"/>
  <path d="M698.99,11.22h15.84V102.3h-15.84V11.22Z" fill="#fff"/>
  <path d="M737.15,7.62c5.4,0,9.6,4.32,9.6,9.6s-4.2,9.48-9.6,9.48-9.6-4.2-9.6-9.48,4.32-9.6,9.6-9.6Zm-7.92,27.24h15.72V102.3h-15.72V34.86Z" fill="#fff"/>
</svg>